<svg xmlns="http://www.w3.org/2000/svg" viewBox="0 0 128 128"><defs><style>.cls-1{isolation:isolate;}.cls-2{mix-blend-mode:multiply;}.cls-3{fill:#093357;}.cls-4{fill:#52ae49;}.cls-5{fill:#489de3;}.cls-6{fill:#e2bc00;}</style></defs><title>router</title><g class="cls-1"><g id="icons" class="cls-2"><path class="cls-3" d="M88,79a2,2,0,0,1-2-2V45a2,2,0,0,1,4,0V77A2,2,0,0,1,88,79Z"/><path class="cls-4" d="M106.38,65.38A2,2,0,0,1,105,62,24,24,0,0,0,105,28a2,2,0,1,1,2.83-2.83,28,28,0,0,1,0,39.59A2,2,0,0,1,106.38,65.38Z"/><path class="cls-4" d="M69.62,65.38a2,2,0,0,1-1.41-.58,28,28,0,0,1,0-39.59A2,2,0,0,1,71,28,24,24,0,0,0,71,62a2,2,0,0,1-1.41,3.42Z"/><path class="cls-4" d="M100.73,59.73a2,2,0,0,1-1.42-3.41,16,16,0,0,0,0-22.64,2,2,0,1,1,2.83-2.82,20,20,0,0,1,0,28.28A2,2,0,0,1,100.73,59.73Z"/><path class="cls-4" d="M75.27,59.73a2,2,0,0,1-1.42-.59,20,20,0,0,1,0-28.28,2,2,0,1,1,2.83,2.82,16,16,0,0,0,0,22.64,2,2,0,0,1-1.42,3.41Z"/><path class="cls-4" d="M95.07,54.07a2,2,0,0,1-1.41-3.41,8,8,0,0,0,0-11.31,2,2,0,0,1,2.83-2.83,12,12,0,0,1,0,17A2,2,0,0,1,95.07,54.07Z"/><path class="cls-4" d="M80.93,54.07a2,2,0,0,1-1.41-.59,12,12,0,0,1,0-17,2,2,0,0,1,2.83,2.83,8,8,0,0,0,0,11.31,2,2,0,0,1-1.41,3.41Z"/><rect class="cls-5" x="12" y="75" width="104" height="28" rx="4" ry="4"/><circle class="cls-6" cx="100" cy="89" r="4"/><circle class="cls-6" cx="88" cy="89" r="4"/><rect class="cls-3" x="24" y="87" width="16" height="4" rx="2" ry="2"/></g></g></svg>